<?xml version="1.0" standalone="no"?>
<!-- Generator: Paintmaps.com , Online SVG vector map maker -->
<svg xmlns="http://www.w3.org/2000/svg" version="1.1" baseProfile="full" width="800" height="533" style="background-color:false">
<path d="M 372.8911 475.5632 L 376.7693 475.8217 L 375.6058 476.9076 L 375.5283 476.132 L 373.4728 477.0628 L 373.1238 476.3388 L 370.409 477.8901 L 369.8273 476.9594 L 372.8911 475.5632 Z M 341.8263 477.5282 L 341.3997 477.5282 L 340.469 449.036 L 343.2225 452.8625 L 343.2613 453.7933 L 341.4773 455.2412 L 341.3222 456.7408 L 342.0978 457.4647 L 344.6962 457.9818 L 345.7434 461.2912 L 347.2171 462.8425 L 349.0399 464.2387 L 348.9623 465.1178 L 351.0178 466.9793 L 355.0124 469.4097 L 357.1454 472.1503 L 361.8769 474.529 L 362.924 474.7358 L 365.7939 474.2704 L 366.9186 474.4256 L 365.6 477.9418 L 364.9019 477.5282 L 363.0016 478.6658 L 362.7689 477.8901 L 360.8297 477.8901 L 360.7522 478.6658 L 358.4252 478.976 L 356.7964 479.7 L 354.8572 478.3555 L 353.1896 477.8901 L 345.5107 477.2696 L 343.843 476.6491 L 343.6879 477.3213 L 341.8263 477.5282 Z" fill="#000" fill-opacity="1" stroke="#000" stroke-width="0" paint-order="fill" stroke-opacity="1" stroke-dasharray="" stroke-linecap="butt" stroke-linejoin="miter" stroke-miterlimit="10" transform="matrix(1.100000023841858,0,0,1.100000023841858,-40,-26.649986267089844)" clip-path="none"/>
<path d="M 399.0304 293.4926 L 398.2936 294.5268 L 397.0525 293.8028 L 397.7506 292.0447 L 399.0304 293.4926 Z M 399.3407 291.5276 L 398.2548 289.5626 L 398.4099 288.9421 L 399.4183 289.5626 L 399.3407 291.5276 Z M 400.9308 276.48 L 401.3962 277.6176 L 400.0776 276.9971 L 399.1856 275.6009 L 400.9308 276.48 Z M 440.3337 212.6182 L 440.8767 214.9969 L 438.7437 216.1345 L 439.9071 217.2204 L 439.5581 219.1854 L 438.8212 219.7542 L 438.6661 221.6158 L 439.6357 222.4948 L 441.1094 221.0987 L 442.6607 222.4431 L 445.5694 223.6842 L 449.021 226.3731 L 451.6194 229.6308 L 452.6278 231.906 L 452.4339 232.7334 L 449.9906 235.6809 L 449.564 238.9903 L 450.5723 241.4724 L 453.6361 244.2647 L 455.3038 244.213 L 455.9631 244.9369 L 455.7304 250.7802 L 455.4201 251.7626 L 453.0544 254.555 L 451.0377 257.6059 L 448.2066 260.3982 L 445.9184 263.0871 L 445.4142 265.8277 L 444.7549 266.6551 L 438.8212 269.706 L 429.5522 272.3432 L 421.214 273.5842 L 411.4408 274.7736 L 408.6873 274.9287 L 405.8949 274.515 L 404.9642 274.877 L 400 273.6877 L 398.759 272.0329 L 396.4708 271.9812 L 397.0525 273.8428 L 396.6259 275.6526 L 397.5567 277.6693 L 399.7673 279.1689 L 399.4183 279.7377 L 398.0997 278.3415 L 397.2464 278.3933 L 399.3795 280.2031 L 398.6426 284.9604 L 396.7811 284.8053 L 395.9666 289.8729 L 394.7256 291.0622 L 395.3849 293.0789 L 396.2381 293.6477 L 397.0525 295.6644 L 395.8891 298.405 L 392.0496 300.37 L 391.3515 300.37 L 390.8473 299.0255 L 388.4816 296.44 L 385.8832 295.9229 L 386.3874 278.1864 L 387.5508 235.3706 L 387.9387 222.7534 L 388.2489 215.2037 L 388.598 214.7901 L 393.7172 214.9452 L 405.701 215.3589 L 413.9617 206.7233 L 414.621 205.2754 L 417.0643 205.5857 L 418.4604 206.5165 L 419.2749 206.1545 L 419.9342 204.3447 L 421.4855 202.328 L 421.3691 201.7074 L 423.1143 203.569 L 425.7903 205.3789 L 426.6435 206.5682 L 428.3887 207.5507 L 429.2807 207.3438 L 430.5606 208.4814 L 431.9567 208.378 L 432.9263 209.8259 L 434.2837 209.8776 L 437.8517 212.7734 L 440.3337 212.6182 Z" fill="#000" fill-opacity="1" stroke="#000" stroke-width="0" paint-order="fill" stroke-opacity="1" stroke-dasharray="" stroke-linecap="butt" stroke-linejoin="miter" stroke-miterlimit="10" transform="matrix(1.100000023841858,0,0,1.100000023841858,-40,-26.649986267089844)" clip-path="none"/>
<path d="M 315.0277 188.8317 L 314.2908 188.4697 L 313.6315 185.2637 L 314.9889 184.3329 L 314.1745 183.3504 L 312.9334 183.247 L 310.9943 179.2136 L 311.1106 176.0593 L 312.0026 173.3704 L 313.0886 173.629 L 314.252 172.3362 L 313.4376 171.2503 L 313.5927 169.4922 L 314.9889 163.8558 L 316.579 164.2178 L 317.9364 163.0801 L 318.4405 160.7015 L 317.0444 160.2361 L 317.5485 158.2711 L 317.3934 155.4271 L 315.9585 150.98 L 316.0748 149.8424 L 317.3158 148.0843 L 318.5181 147.4637 L 318.4017 145.7056 L 319.1386 143.7923 L 319.0223 141.5688 L 319.7203 140.5346 L 319.9143 138.4662 L 323.4822 139.4487 L 325.4602 141.1551 L 326.197 143.1718 L 328.2525 145.809 L 327.4381 147.4637 L 328.1361 149.8424 L 327.3993 152.4279 L 327.8647 154.0826 L 330.8897 153.5655 L 335.0394 154.6514 L 337.5991 156.8749 L 339.5382 158.9951 L 342.7959 161.6323 L 343.5716 163.287 L 347.7988 167.6823 L 348.9623 169.9576 L 348.5357 171.302 L 349.195 172.2328 L 348.7296 175.7491 L 349.3501 177.8692 L 351.3668 179.2136 L 351.7159 180.8166 L 352.8406 182.3679 L 350.087 182.5748 L 346.2088 182.0577 L 345.7434 182.7299 L 345.7434 187.3838 L 344.9677 186.815 L 341.0507 187.177 L 338.9564 185.0051 L 334.9618 186.1428 L 331.8593 188.5731 L 329.5711 188.5214 L 329.2608 185.3154 L 328.1749 185.4188 L 326.8175 183.9192 L 325.3438 185.1086 L 323.5986 185.212 L 321.8534 186.1945 L 321.6983 187.5906 L 317.9751 188.6765 L 315.0277 188.8317 Z" fill="#000" fill-opacity="1" stroke="#000" stroke-width="0" paint-order="fill" stroke-opacity="1" stroke-dasharray="" stroke-linecap="butt" stroke-linejoin="miter" stroke-miterlimit="10" transform="matrix(1.100000023841858,0,0,1.100000023841858,-40,-26.649986267089844)" clip-path="none"/>
<path d="M 315.2604 237.8527 L 315.7258 236.8185 L 315.2216 234.5432 L 315.8421 233.8193 L 315.0665 231.8543 L 315.144 229.8894 L 313.5539 226.1145 L 315.144 225.5457 L 315.3767 222.7534 L 316.1136 220.7367 L 316.5014 217.9961 L 318.1691 215.4623 L 318.3242 213.911 L 320.4572 213.3939 L 320.1082 210.1362 L 319.5264 209.7742 L 319.5264 205.9994 L 320.5348 202.328 L 319.2162 200.5698 L 318.1303 201.3972 L 317.1219 200.001 L 316.928 198.0878 L 318.0527 195.9676 L 316.5014 194.6232 L 315.9972 190.7967 L 315.0277 188.8317 L 317.9751 188.6765 L 321.6983 187.5906 L 321.8534 186.1945 L 323.5986 185.212 L 325.3438 185.1086 L 326.8175 183.9192 L 328.1749 185.4188 L 329.2608 185.3154 L 329.5711 188.5214 L 331.8593 188.5731 L 334.9618 186.1428 L 338.9564 185.0051 L 341.0507 187.177 L 344.9677 186.815 L 345.7434 187.3838 L 347.2559 192.3997 L 347.9927 193.7441 L 347.6437 195.7091 L 348.6133 202.5865 L 349.9319 204.7066 L 350.9014 207.499 L 352.8793 210.3947 L 352.1037 212.5148 L 352.22 214.5315 L 352.9957 217.479 L 354.7409 220.4781 L 355.439 224.2013 L 355.2838 228.9586 L 354.2367 234.5432 L 354.3919 235.2155 L 337.6378 235.4223 L 337.2112 237.077 L 337.5991 238.9903 L 338.0644 255.3823 L 336.2805 255.1755 L 335.2333 253.9862 L 332.9064 253.1588 L 330.2304 252.9003 L 329.4547 251.1421 L 327.7095 250.5216 L 325.4989 250.9353 L 324.0252 250.625 L 322.0861 248.9186 L 322.2024 247.0053 L 320.8063 246.0228 L 319.255 243.9027 L 318.1303 243.3856 L 317.0056 240.8001 L 316.2299 240.9553 L 316.0748 238.8869 L 315.2604 237.8527 Z" fill="#000" fill-opacity="1" stroke="#000" stroke-width="0" paint-order="fill" stroke-opacity="1" stroke-dasharray="" stroke-linecap="butt" stroke-linejoin="miter" stroke-miterlimit="10" transform="matrix(1.100000023841858,0,0,1.100000023841858,-40,-26.649986267089844)" clip-path="none"/>
<path d="M 304.4401 301.3525 L 304.5564 300.37 L 303.3542 297.6293 L 304.091 296.6469 L 304.5564 293.8028 L 305.7199 292.6135 L 304.2074 291.0105 L 304.3237 289.3558 L 305.4872 289.5109 L 305.9138 286.822 L 304.8667 284.7536 L 305.0994 282.6852 L 306.6894 283.1506 L 306.418 282.1681 L 307.1161 280.8236 L 307.5427 278.2381 L 307.1936 274.4116 L 308.9388 272.7052 L 312.3905 270.947 L 312.5068 268.8786 L 311.1882 267.6376 L 310.684 265.5692 L 310.6065 263.0354 L 308.5898 258.4849 L 309.0164 255.0721 L 308.0856 253.2105 L 309.1327 250.7285 L 307.8917 247.3673 L 308.2795 245.4023 L 309.0164 245.5057 L 309.2103 242.7134 L 310.7228 241.5758 L 312.468 241.6792 L 312.5456 239.6625 L 313.8254 238.0595 L 315.2604 237.8527 L 316.0748 238.8869 L 316.2299 240.9553 L 317.0056 240.8001 L 318.1303 243.3856 L 319.255 243.9027 L 320.8063 246.0228 L 322.2024 247.0053 L 322.0861 248.9186 L 324.0252 250.625 L 325.4989 250.9353 L 327.7095 250.5216 L 329.4547 251.1421 L 330.2304 252.9003 L 332.9064 253.1588 L 335.2333 253.9862 L 336.2805 255.1755 L 338.0644 255.3823 L 338.3747 269.5509 L 340.469 272.6017 L 340.6629 273.4808 L 338.4135 273.8428 L 337.793 273.4291 L 335.3497 275.3424 L 333.1003 277.9796 L 331.6653 280.4099 L 328.7567 281.8578 L 327.8259 283.4608 L 326.1582 284.9087 L 324.8008 284.9604 L 322.0861 286.9771 L 321.1941 292.7686 L 320.0306 294.3199 L 317.82 294.7853 L 316.5014 294.3199 L 315.1828 295.3541 L 312.7783 296.0263 L 311.3433 297.8879 L 312.4293 299.7495 L 311.3821 301.4042 L 309.4042 302.0247 L 307.4651 301.4042 L 304.4401 301.3525 Z" fill="#000" fill-opacity="1" stroke="#000" stroke-width="0" paint-order="fill" stroke-opacity="1" stroke-dasharray="" stroke-linecap="butt" stroke-linejoin="miter" stroke-miterlimit="10" transform="matrix(1.100000023841858,0,0,1.100000023841858,-40,-26.649986267089844)" clip-path="none"/>
<path d="M 338.0644 255.3823 L 337.5991 238.9903 L 337.2112 237.077 L 337.6378 235.4223 L 354.3919 235.2155 L 370.0987 235.2155 L 370.2151 222.4431 L 381.9662 222.5983 L 387.9387 222.7534 L 387.5508 235.3706 L 386.3874 278.1864 L 385.4954 278.083 L 383.246 276.48 L 380.5312 273.9979 L 375.8385 271.8778 L 372.3869 271.2573 L 369.4782 271.1539 L 366.9961 271.5675 L 364.7855 270.7919 L 363.7772 271.309 L 361.1012 270.3265 L 358.5804 270.0163 L 356.8351 270.2231 L 355.1675 269.8094 L 354.2755 267.9479 L 350.087 266.138 L 348.9623 263.7076 L 345.2004 264.2765 L 343.6879 262.2598 L 342.2529 261.7427 L 342.2142 259.7777 L 343.5328 258.123 L 343.1449 256.7268 L 342.0978 255.8477 L 338.0644 255.3823 Z" fill="#000" fill-opacity="1" stroke="#000" stroke-width="0" paint-order="fill" stroke-opacity="1" stroke-dasharray="" stroke-linecap="butt" stroke-linejoin="miter" stroke-miterlimit="10" transform="matrix(1.100000023841858,0,0,1.100000023841858,-40,-26.649986267089844)" clip-path="none"/>
<path d="M 391.3515 300.37 L 388.4816 301.7144 L 381.9662 301.5593 L 379.2902 299.4909 L 378.2431 299.5426 L 375.9161 298.2499 L 372.8911 297.164 L 372.542 295.9746 L 371.4173 295.561 L 369.168 297.164 L 368.625 299.4392 L 369.6721 305.0756 L 370.2927 306.42 L 369.866 307.8679 L 370.1763 309.5226 L 369.6333 312.315 L 368.974 312.1598 L 306.2241 313.9697 L 305.875 312.2633 L 304.4401 309.2124 L 305.0606 308.4367 L 304.4013 305.9546 L 304.4401 301.3525 L 307.4651 301.4042 L 309.4042 302.0247 L 311.3821 301.4042 L 312.4293 299.7495 L 311.3433 297.8879 L 312.7783 296.0263 L 315.1828 295.3541 L 316.5014 294.3199 L 317.82 294.7853 L 320.0306 294.3199 L 321.1941 292.7686 L 322.0861 286.9771 L 324.8008 284.9604 L 326.1582 284.9087 L 327.8259 283.4608 L 328.7567 281.8578 L 331.6653 280.4099 L 333.1003 277.9796 L 335.3497 275.3424 L 337.793 273.4291 L 338.4135 273.8428 L 340.6629 273.4808 L 340.469 272.6017 L 338.3747 269.5509 L 338.0644 255.3823 L 342.0978 255.8477 L 343.1449 256.7268 L 343.5328 258.123 L 342.2142 259.7777 L 342.2529 261.7427 L 343.6879 262.2598 L 345.2004 264.2765 L 348.9623 263.7076 L 350.087 266.138 L 354.2755 267.9479 L 355.1675 269.8094 L 356.8351 270.2231 L 358.5804 270.0163 L 361.1012 270.3265 L 363.7772 271.309 L 364.7855 270.7919 L 366.9961 271.5675 L 369.4782 271.1539 L 372.3869 271.2573 L 375.8385 271.8778 L 380.5312 273.9979 L 383.246 276.48 L 385.4954 278.083 L 386.3874 278.1864 L 385.8832 295.9229 L 388.4816 296.44 L 390.8473 299.0255 L 391.3515 300.37 Z" fill="#000" fill-opacity="1" stroke="#000" stroke-width="0" paint-order="fill" stroke-opacity="1" stroke-dasharray="" stroke-linecap="butt" stroke-linejoin="miter" stroke-miterlimit="10" transform="matrix(1.100000023841858,0,0,1.100000023841858,-40,-26.649986267089844)" clip-path="none"/>
<path d="M 354.3919 235.2155 L 354.2367 234.5432 L 355.2838 228.9586 L 355.439 224.2013 L 354.7409 220.4781 L 352.9957 217.479 L 352.22 214.5315 L 352.1037 212.5148 L 352.8793 210.3947 L 350.9014 207.499 L 349.9319 204.7066 L 348.6133 202.5865 L 347.6437 195.7091 L 347.9927 193.7441 L 347.2559 192.3997 L 345.7434 187.3838 L 345.7434 182.7299 L 346.2088 182.0577 L 350.087 182.5748 L 352.8406 182.3679 L 354.2367 182.8333 L 358.3864 182.9367 L 360.1317 182.3162 L 363.3118 182.4714 L 365.1346 182.8333 L 368.7414 185.4188 L 369.3231 188.056 L 372.2706 187.8492 L 372.7747 191.0035 L 371.0295 198.1912 L 369.9436 199.3805 L 370.3314 209.102 L 370.2151 222.4431 L 370.0987 235.2155 L 354.3919 235.2155 Z" fill="#000" fill-opacity="1" stroke="#000" stroke-width="0" paint-order="fill" stroke-opacity="1" stroke-dasharray="" stroke-linecap="butt" stroke-linejoin="miter" stroke-miterlimit="10" transform="matrix(1.100000023841858,0,0,1.100000023841858,-40,-26.649986267089844)" clip-path="none"/>
<path d="M 387.9387 222.7534 L 381.9662 222.5983 L 370.2151 222.4431 L 370.3314 209.102 L 369.9436 199.3805 L 371.0295 198.1912 L 372.7747 191.0035 L 372.2706 187.8492 L 369.3231 188.056 L 368.7414 185.4188 L 365.1346 182.8333 L 363.3118 182.4714 L 363.2342 172.3362 L 365.949 163.4938 L 367.3064 160.1327 L 370.1763 159.1502 L 372.3481 156.8232 L 372.193 153.3587 L 373.0462 152.6864 L 379.6004 151.0834 L 382.1989 151.704 L 382.2764 152.4279 L 384.9136 154.0826 L 388.7143 154.2377 L 389.8002 155.789 L 401.6289 156.0993 L 402.133 156.513 L 403.6843 161.0634 L 403.1414 164.9417 L 405.9725 168.5614 L 402.676 179.679 L 401.5513 180.8683 L 401.8228 184.1261 L 401.3962 186.4013 L 402.9087 187.9526 L 403.4904 189.659 L 404.4988 190.6932 L 405.3132 193.5373 L 406.2828 195.4505 L 405.8561 197.6741 L 404.1497 199.0185 L 393.7172 214.9452 L 388.598 214.7901 L 388.2489 215.2037 L 387.9387 222.7534 Z" fill="#000" fill-opacity="1" stroke="#000" stroke-width="0" paint-order="fill" stroke-opacity="1" stroke-dasharray="" stroke-linecap="butt" stroke-linejoin="miter" stroke-miterlimit="10" transform="matrix(1.100000023841858,0,0,1.100000023841858,-40,-26.649986267089844)" clip-path="none"/>
<path d="M 373.0462 152.6864 L 372.193 153.3587 L 372.3481 156.8232 L 370.1763 159.1502 L 367.3064 160.1327 L 365.4836 156.3061 L 363.6996 151.9625 L 363.0016 148.7565 L 359.356 145.1368 L 356.9903 143.9475 L 356.9515 142.1376 L 355.439 140.5863 L 354.1979 137.9491 L 349.8155 136.191 L 348.4581 137.1218 L 346.6354 137.3803 L 341.6712 137.2252 L 340.3526 137.7423 L 339.3443 136.1393 L 339.0728 134.4846 L 337.3664 134.8982 L 333.2942 132.7264 L 333.3718 129.7272 L 328.7179 130.4512 L 325.4989 130.2443 L 326.7788 126.1075 L 327.6707 125.3836 L 329.0669 121.7122 L 331.5102 122.3327 L 332.2471 121.1951 L 334.3801 120.7297 L 334.4577 118.5062 L 331.5102 114.4728 L 331.3939 111.3185 L 333.1391 109.6638 L 332.1307 104.286 L 331.4326 103.0966 L 330.8509 100.2526 L 332.0144 96.6846 L 339.9648 98.1325 L 353.8101 97.8222 L 354.3919 97.9256 L 355.3614 100.4594 L 354.8572 102.4244 L 352.2976 102.9932 L 351.4832 103.6654 L 351.7934 105.8373 L 353.655 108.371 L 354.6633 110.4394 L 355.9431 111.939 L 356.6412 111.8356 L 358.1537 109.3018 L 360.0929 110.3877 L 358.9682 113.4903 L 362.381 116.3861 L 362.1483 118.8682 L 358.5416 123.9874 L 360.9073 124.9699 L 361.5278 128.2794 L 362.7301 130.2443 L 364.0875 130.4512 L 364.4753 132.0542 L 365.6775 133.4504 L 366.2981 132.3127 L 368.1984 131.02 L 370.06 131.5888 L 371.0295 136.2944 L 370.9907 138.9316 L 369.866 141.0517 L 370.7193 141.6722 L 371.4173 149.3253 L 373.0462 152.6864 Z" fill="#000" fill-opacity="1" stroke="#000" stroke-width="0" paint-order="fill" stroke-opacity="1" stroke-dasharray="" stroke-linecap="butt" stroke-linejoin="miter" stroke-miterlimit="10" transform="matrix(1.100000023841858,0,0,1.100000023841858,-40,-26.649986267089844)" clip-path="none"/>
<path d="M 363.3118 182.4714 L 360.1317 182.3162 L 358.3864 182.9367 L 354.2367 182.8333 L 352.8406 182.3679 L 351.7159 180.8166 L 351.3668 179.2136 L 349.3501 177.8692 L 348.7296 175.7491 L 349.195 172.2328 L 348.5357 171.302 L 348.9623 169.9576 L 347.7988 167.6823 L 343.5716 163.287 L 342.7959 161.6323 L 339.5382 158.9951 L 337.5991 156.8749 L 335.0394 154.6514 L 330.8897 153.5655 L 327.8647 154.0826 L 327.3993 152.4279 L 328.1361 149.8424 L 327.4381 147.4637 L 328.2525 145.809 L 326.197 143.1718 L 325.4602 141.1551 L 323.4822 139.4487 L 319.9143 138.4662 L 322.4351 135.9841 L 323.6762 133.1918 L 325.1111 132.2093 L 325.4989 130.2443 L 328.7179 130.4512 L 333.3718 129.7272 L 333.2942 132.7264 L 337.3664 134.8982 L 339.0728 134.4846 L 339.3443 136.1393 L 340.3526 137.7423 L 341.6712 137.2252 L 346.6354 137.3803 L 348.4581 137.1218 L 349.8155 136.191 L 354.1979 137.9491 L 355.439 140.5863 L 356.9515 142.1376 L 356.9903 143.9475 L 359.356 145.1368 L 363.0016 148.7565 L 363.6996 151.9625 L 365.4836 156.3061 L 367.3064 160.1327 L 365.949 163.4938 L 363.2342 172.3362 L 363.3118 182.4714 Z" fill="#000" fill-opacity="1" stroke="#000" stroke-width="0" paint-order="fill" stroke-opacity="1" stroke-dasharray="" stroke-linecap="butt" stroke-linejoin="miter" stroke-miterlimit="10" transform="matrix(1.100000023841858,0,0,1.100000023841858,-40,-26.649986267089844)" clip-path="none"/>
<path d="M 360.0929 110.3877 L 358.1537 109.3018 L 356.6412 111.8356 L 355.9431 111.939 L 354.6633 110.4394 L 353.655 108.371 L 351.7934 105.8373 L 351.4832 103.6654 L 352.2976 102.9932 L 354.8572 102.4244 L 355.3614 100.4594 L 354.3919 97.9256 L 353.8101 97.8222 L 339.9648 98.1325 L 332.0144 96.6846 L 333.3718 96.3226 L 332.1695 93.3235 L 331.0448 91.6687 L 331.8205 89.6003 L 334.7679 86.6529 L 344.9289 81.999 L 346.17 78.1724 L 348.0315 79.3618 L 350.7851 82.361 L 352.9181 84.1191 L 354.896 84.5845 L 356.6412 82.1024 L 356.7964 78.0173 L 356.0207 75.8455 L 356.6025 73.4668 L 358.7355 74.1391 L 360.8685 75.6904 L 360.4419 78.6895 L 360.7134 80.7579 L 363.5057 82.5161 L 363.5057 83.5503 L 365.4836 86.7046 L 369.0904 87.9973 L 370.2539 87.3768 L 371.8827 88.8247 L 373.3952 89.1867 L 374.4036 87.4802 L 376.5754 89.4452 L 378.0104 87.7905 L 380.1822 86.9631 L 382.0437 84.0674 L 381.811 75.4318 L 379.9495 75.3284 L 378.9024 76.7763 L 376.3427 74.6562 L 373.7831 75.0699 L 372.8135 72.5878 L 371.8827 72.019 L 371.9603 68.813 L 370.1375 68.5027 L 369.2843 66.7963 L 369.2843 64.0556 L 368.3923 63.4868 L 369.6333 60.1257 L 370.2539 57.2299 L 372.2318 57.2299 L 377.3123 58.7812 L 377.4674 60.4359 L 379.135 62.9697 L 378.8248 64.2625 L 379.8331 65.4001 L 380.1046 67.1065 L 381.2293 63.0214 L 382.3152 61.7287 L 384.8748 56.1957 L 387.3181 56.8163 L 388.5204 56.144 L 398.3324 56.4026 L 398.4875 57.8504 L 400.4654 59.6603 L 400.2715 60.1774 L 403.6455 62.5561 L 403.3353 76.4143 L 403.1414 83.6537 L 403.1026 87.2734 L 390.4983 103.0449 L 384.487 102.8898 L 381.1905 102.2176 L 378.6697 107.5954 L 377.9716 110.0775 L 374.7526 109.9223 L 372.5033 110.5946 L 369.0516 109.2501 L 368.5474 108.1125 L 367.0737 108.6813 L 364.5529 108.1125 L 364.0099 110.9048 L 360.0929 110.3877 Z" fill="#000" fill-opacity="1" stroke="#000" stroke-width="0" paint-order="fill" stroke-opacity="1" stroke-dasharray="" stroke-linecap="butt" stroke-linejoin="miter" stroke-miterlimit="10" transform="matrix(1.100000023841858,0,0,1.100000023841858,-40,-26.649986267089844)" clip-path="none"/>
<path d="M 373.0462 152.6864 L 371.4173 149.3253 L 370.7193 141.6722 L 369.866 141.0517 L 370.9907 138.9316 L 371.0295 136.2944 L 370.06 131.5888 L 371.1846 131.3302 L 371.9603 129.9341 L 371.1846 127.9174 L 372.3093 126.5729 L 371.2622 126.0041 L 373.3565 123.9357 L 375.1017 119.8506 L 375.6834 117.6788 L 376.7305 116.0241 L 377.6613 115.9724 L 377.5062 112.9215 L 377.9716 110.0775 L 378.6697 107.5954 L 381.1905 102.2176 L 384.487 102.8898 L 390.4983 103.0449 L 409.3466 103.562 L 409.6568 104.6996 L 409.5793 111.2668 L 408.8424 133.6055 L 406.7094 145.2919 L 403.6843 161.0634 L 402.133 156.513 L 401.6289 156.0993 L 389.8002 155.789 L 388.7143 154.2377 L 384.9136 154.0826 L 382.2764 152.4279 L 382.1989 151.704 L 379.6004 151.0834 L 373.0462 152.6864 Z" fill="#000" fill-opacity="1" stroke="#000" stroke-width="0" paint-order="fill" stroke-opacity="1" stroke-dasharray="" stroke-linecap="butt" stroke-linejoin="miter" stroke-miterlimit="10" transform="matrix(1.100000023841858,0,0,1.100000023841858,-40,-26.649986267089844)" clip-path="none"/>
<path d="M 370.06 131.5888 L 368.1984 131.02 L 366.2981 132.3127 L 365.6775 133.4504 L 364.4753 132.0542 L 364.0875 130.4512 L 362.7301 130.2443 L 361.5278 128.2794 L 360.9073 124.9699 L 358.5416 123.9874 L 362.1483 118.8682 L 362.381 116.3861 L 358.9682 113.4903 L 360.0929 110.3877 L 364.0099 110.9048 L 364.5529 108.1125 L 367.0737 108.6813 L 368.5474 108.1125 L 369.0516 109.2501 L 372.5033 110.5946 L 374.7526 109.9223 L 377.9716 110.0775 L 377.5062 112.9215 L 377.6613 115.9724 L 376.7305 116.0241 L 375.6834 117.6788 L 375.1017 119.8506 L 373.3565 123.9357 L 371.2622 126.0041 L 372.3093 126.5729 L 371.1846 127.9174 L 371.9603 129.9341 L 371.1846 131.3302 L 370.06 131.5888 Z" fill="#000" fill-opacity="1" stroke="#000" stroke-width="0" paint-order="fill" stroke-opacity="1" stroke-dasharray="" stroke-linecap="butt" stroke-linejoin="miter" stroke-miterlimit="10" transform="matrix(1.100000023841858,0,0,1.100000023841858,-40,-26.649986267089844)" clip-path="none"/>
<path d="M 390.4983 103.0449 L 403.1026 87.2734 L 403.1414 83.6537 L 406.4767 84.8947 L 408.1443 86.3426 L 409.618 86.6529 L 410.8979 88.4627 L 411.945 88.6179 L 413.2636 90.3243 L 415.4354 90.7897 L 416.754 91.8239 L 417.2582 93.7888 L 422.3775 97.7188 L 423.9675 98.2876 L 425.4801 100.356 L 427.4192 104.3377 L 429.048 104.8548 L 430.9484 106.5095 L 433.0039 109.095 L 432.9651 110.4394 L 435.8738 111.5253 L 436.1065 112.8181 L 437.2311 113.5937 L 438.8212 113.0249 L 440.9543 114.5245 L 441.9238 115.869 L 445.0652 118.4545 L 447.4697 121.1434 L 446.2287 121.6088 L 445.5306 123.2635 L 443.8242 124.4011 L 444.2895 126.4695 L 440.9543 128.3828 L 441.536 132.2093 L 440.8379 135.1051 L 419.6627 134.0192 L 408.8424 133.6055 L 409.5793 111.2668 L 409.6568 104.6996 L 409.3466 103.562 L 390.4983 103.0449 Z" fill="#000" fill-opacity="1" stroke="#000" stroke-width="0" paint-order="fill" stroke-opacity="1" stroke-dasharray="" stroke-linecap="butt" stroke-linejoin="miter" stroke-miterlimit="10" transform="matrix(1.100000023841858,0,0,1.100000023841858,-40,-26.649986267089844)" clip-path="none"/>
<path d="M 403.1414 83.6537 L 403.3353 76.4143 L 403.6455 62.5561 L 404.8866 63.642 L 405.5847 65.7104 L 407.9892 69.8472 L 409.269 70.6745 L 410.3937 72.4844 L 411.9838 73.26 L 413.2636 74.863 L 415.513 75.8455 L 417.646 77.5002 L 418.7707 80.0857 L 420.7098 81.0165 L 423.5022 81.5853 L 423.6961 82.0507 L 426.566 83.0849 L 429.9788 83.1366 L 436.4555 87.9456 L 437.7741 89.6521 L 441.6136 91.8756 L 443.7466 93.7371 L 447.5861 94.8748 L 449.3313 96.8397 L 450.4172 96.1675 L 453.0932 98.0808 L 454.1791 98.1842 L 455.6528 99.6321 L 457.7083 103.3552 L 456.8163 105.3202 L 455.265 105.9407 L 454.6057 107.9574 L 453.2871 109.6121 L 453.6361 110.2326 L 451.0765 111.5771 L 450.0293 113.3352 L 448.7495 119.5921 L 447.4697 121.1434 L 445.0652 118.4545 L 441.9238 115.869 L 440.9543 114.5245 L 438.8212 113.0249 L 437.2311 113.5937 L 436.1065 112.8181 L 435.8738 111.5253 L 432.9651 110.4394 L 433.0039 109.095 L 430.9484 106.5095 L 429.048 104.8548 L 427.4192 104.3377 L 425.4801 100.356 L 423.9675 98.2876 L 422.3775 97.7188 L 417.2582 93.7888 L 416.754 91.8239 L 415.4354 90.7897 L 413.2636 90.3243 L 411.945 88.6179 L 410.8979 88.4627 L 409.618 86.6529 L 408.1443 86.3426 L 406.4767 84.8947 L 403.1414 83.6537 Z" fill="#000" fill-opacity="1" stroke="#000" stroke-width="0" paint-order="fill" stroke-opacity="1" stroke-dasharray="" stroke-linecap="butt" stroke-linejoin="miter" stroke-miterlimit="10" transform="matrix(1.100000023841858,0,0,1.100000023841858,-40,-26.649986267089844)" clip-path="none"/>
<path d="M 440.8379 135.1051 L 441.536 132.2093 L 440.9543 128.3828 L 444.2895 126.4695 L 445.3755 126.0558 L 450.9213 126.1593 L 454.5281 127.3486 L 456.3121 128.4345 L 458.6003 128.6413 L 460.2679 129.7272 L 463.4869 129.1067 L 464.883 130.3478 L 467.5202 129.8824 L 469.4206 131.6922 L 470.584 129.2618 L 472.4456 128.2794 L 474.2296 128.7965 L 473.5315 130.3478 L 474.8889 133.864 L 475.0828 136.3461 L 476.0524 138.5179 L 477.2546 139.6555 L 475.4706 140.638 L 476.5953 141.9825 L 476.0136 142.965 L 474.5399 142.0342 L 473.803 143.4821 L 472.4844 143.844 L 472.2517 144.9817 L 470.2738 146.8432 L 469.1103 147.2052 L 468.8388 148.4979 L 467.3651 150.5663 L 464.9994 151.8591 L 464.1849 153.7206 L 459.1044 159.0468 L 456.8551 159.6673 L 456.3121 161.7874 L 454.1403 163.7007 L 452.589 164.2178 L 452.3563 165.9759 L 450.0681 167.8374 L 449.564 169.1302 L 450.262 171.1986 L 448.4393 169.1819 L 447.7024 166.8033 L 445.7633 164.2178 L 441.7687 162.925 L 438.9764 163.7007 L 437.5802 163.3387 L 434.8654 164.9417 L 433.2753 164.3729 L 430.2503 164.6314 L 431.1811 160.4946 L 430.5218 158.7365 L 431.5301 155.3754 L 431.724 152.7899 L 432.6936 150.2044 L 434.4388 149.4804 L 436.3391 148.0325 L 436.4555 146.7398 L 437.6965 143.4821 L 438.2783 140.1209 L 438.2783 136.9666 L 439.7908 136.4495 L 440.8379 135.1051 Z" fill="#000" fill-opacity="1" stroke="#000" stroke-width="0" paint-order="fill" stroke-opacity="1" stroke-dasharray="" stroke-linecap="butt" stroke-linejoin="miter" stroke-miterlimit="10" transform="matrix(1.100000023841858,0,0,1.100000023841858,-40,-26.649986267089844)" clip-path="none"/>
<path d="M 430.2503 164.6314 L 433.2753 164.3729 L 434.8654 164.9417 L 437.5802 163.3387 L 438.9764 163.7007 L 441.7687 162.925 L 445.7633 164.2178 L 447.7024 166.8033 L 448.4393 169.1819 L 450.262 171.1986 L 450.1069 173.3187 L 448.9434 173.7324 L 449.4476 175.1803 L 448.7495 177.5072 L 446.6553 180.3512 L 447.5473 181.4889 L 446.5389 184.6949 L 445.2979 185.0569 L 445.3367 187.8492 L 444.8325 188.9868 L 445.6082 191.1069 L 444.1732 193.2787 L 444.4059 200.5698 L 443.3588 201.0869 L 441.885 200.6732 L 441.3421 203.569 L 440.0623 205.3789 L 439.5581 208.378 L 440.2562 210.4464 L 440.3337 212.6182 L 437.8517 212.7734 L 434.2837 209.8776 L 432.9263 209.8259 L 431.9567 208.378 L 430.5606 208.4814 L 429.2807 207.3438 L 428.3887 207.5507 L 426.6435 206.5682 L 425.7903 205.3789 L 423.1143 203.569 L 421.3691 201.7074 L 419.3137 199.8459 L 417.5684 196.2262 L 416.7928 192.2962 L 417.6072 187.5906 L 418.1502 185.9876 L 417.6072 184.6432 L 418.5768 181.7474 L 421.1364 181.3337 L 424.8208 177.4038 L 429.9788 169.699 L 430.6381 166.0793 L 430.2503 164.6314 Z" fill="#000" fill-opacity="1" stroke="#000" stroke-width="0" paint-order="fill" stroke-opacity="1" stroke-dasharray="" stroke-linecap="butt" stroke-linejoin="miter" stroke-miterlimit="10" transform="matrix(1.100000023841858,0,0,1.100000023841858,-40,-26.649986267089844)" clip-path="none"/>
<path d="M 310.8392 365.2142 L 310.6065 363.7146 L 309.2879 361.9565 L 309.443 359.7847 L 311.4985 359.009 L 311.576 357.5094 L 313.2437 356.0616 L 310.4901 352.0799 L 308.9 351.6145 L 307.7366 351.8731 L 306.0689 351.4077 L 306.1465 349.4944 L 307.9305 349.8047 L 311.1106 348.9773 L 312.6232 349.6495 L 313.4376 348.8739 L 313.36 347.7363 L 314.3296 346.0298 L 313.4376 344.7371 L 311.3433 344.582 L 307.8529 344.8405 L 307.8529 342.5136 L 307.2712 341.0657 L 308.0856 340.4452 L 308.9 338.6353 L 307.4263 336.1532 L 308.2795 335.3776 L 308.0468 334.3951 L 306.6119 333.7746 L 305.9526 332.7921 L 306.1465 330.9822 L 307.5427 330.5686 L 307.5039 329.2241 L 304.983 328.5002 L 303.5869 327.0523 L 303.7808 325.2424 L 303.199 321.8296 L 304.091 320.4334 L 303.1215 317.5377 L 303.8195 315.9864 L 304.7115 316.2449 L 306.6119 315.0039 L 306.2241 313.9697 L 368.974 312.1598 L 369.6333 312.315 L 371.4949 314.6419 L 374.9078 315.4176 L 373.8219 317.5894 L 375.2956 317.9513 L 378.2818 317.8479 L 379.0187 317.0723 L 378.8636 315.7795 L 376.7305 315.5727 L 381.3844 313.2975 L 382.3152 314.1248 L 383.3623 316.8137 L 383.3623 320.0197 L 382.9357 322.0364 L 381.811 322.9672 L 378.3206 323.6394 L 377.0408 322.1916 L 377.5838 320.5368 L 375.3344 318.727 L 373.7055 318.8304 L 370.5641 320.5368 L 370.06 322.1916 L 373.3177 324.1048 L 375.2956 324.7771 L 376.3815 324.4151 L 375.1405 325.9147 L 372.1542 326.8972 L 369.6721 328.8104 L 369.6721 329.8446 L 366.841 333.6195 L 366.9574 335.6361 L 367.8881 339.5661 L 367.0349 340.8588 L 367.8494 342.4618 L 366.7634 343.7029 L 366.1817 345.4093 L 364.8631 345.7196 L 363.5445 346.9089 L 363.273 348.9256 L 364.5529 349.2876 L 364.165 351.4077 L 362.9628 350.8906 L 361.0236 351.1491 L 358.9294 350.4769 L 355.439 352.3902 L 356.0207 353.3726 L 352.9569 353.6312 L 351.2117 355.1308 L 348.8847 358.5436 L 348.5357 360.8706 L 347.8376 361.2843 L 346.7517 363.5595 L 339.8097 363.7146 L 310.8392 365.2142 Z" fill="#000" fill-opacity="1" stroke="#000" stroke-width="0" paint-order="fill" stroke-opacity="1" stroke-dasharray="" stroke-linecap="butt" stroke-linejoin="miter" stroke-miterlimit="10" transform="matrix(1.100000023841858,0,0,1.100000023841858,-40,-26.649986267089844)" clip-path="none"/>
<path d="M 393.7172 214.9452 L 404.1497 199.0185 L 405.8561 197.6741 L 406.2828 195.4505 L 405.3132 193.5373 L 404.4988 190.6932 L 403.4904 189.659 L 402.9087 187.9526 L 401.3962 186.4013 L 401.8228 184.1261 L 401.5513 180.8683 L 402.676 179.679 L 405.9725 168.5614 L 403.1414 164.9417 L 403.6843 161.0634 L 406.7094 145.2919 L 408.8424 133.6055 L 419.6627 134.0192 L 440.8379 135.1051 L 439.7908 136.4495 L 438.2783 136.9666 L 438.2783 140.1209 L 437.6965 143.4821 L 436.4555 146.7398 L 436.3391 148.0325 L 434.4388 149.4804 L 432.6936 150.2044 L 431.724 152.7899 L 431.5301 155.3754 L 430.5218 158.7365 L 431.1811 160.4946 L 430.2503 164.6314 L 430.6381 166.0793 L 429.9788 169.699 L 424.8208 177.4038 L 421.1364 181.3337 L 418.5768 181.7474 L 417.6072 184.6432 L 418.1502 185.9876 L 417.6072 187.5906 L 416.7928 192.2962 L 417.5684 196.2262 L 419.3137 199.8459 L 421.3691 201.7074 L 421.4855 202.328 L 419.9342 204.3447 L 419.2749 206.1545 L 418.4604 206.5165 L 417.0643 205.5857 L 414.621 205.2754 L 413.9617 206.7233 L 405.701 215.3589 L 393.7172 214.9452 Z" fill="#000" fill-opacity="1" stroke="#000" stroke-width="0" paint-order="fill" stroke-opacity="1" stroke-dasharray="" stroke-linecap="butt" stroke-linejoin="miter" stroke-miterlimit="10" transform="matrix(1.100000023841858,0,0,1.100000023841858,-40,-26.649986267089844)" clip-path="none"/>
<path d="M 474.2296 128.7965 L 476.5178 130.4512 L 478.4957 129.1067 L 478.5732 127.0383 L 480.2021 126.3144 L 480.6675 124.9699 L 482.4515 124.3494 L 484.0803 124.7631 L 484.313 123.5738 L 486.1358 122.7464 L 487.1054 121.1951 L 488.3852 121.0917 L 488.5403 119.5921 L 489.5874 118.5579 L 490.6733 115.4553 L 490.6346 112.6113 L 491.6817 110.5429 L 491.1775 108.8881 L 491.798 107.4403 L 493.3493 108.4745 L 494.0862 107.8539 L 497.6154 106.9749 L 497.3439 107.6471 L 499.7484 108.8881 L 500.369 111.2668 L 500.2914 113.4386 L 501.8427 116.7998 L 500.9895 118.7647 L 500.3302 122.8498 L 500.5241 125.2285 L 498.6625 128.8482 L 497.2664 128.5896 L 495.6375 130.1409 L 494.7067 129.5204 L 493.233 131.7956 L 492.5737 131.2785 L 490.3631 132.261 L 486.0582 133.6572 L 485.748 135.1051 L 483.8089 135.467 L 484.3518 136.2944 L 480.9777 136.9666 L 479.3877 138.9833 L 477.2546 139.6555 L 476.0524 138.5179 L 475.0828 136.3461 L 474.8889 133.864 L 473.5315 130.3478 L 474.2296 128.7965 Z" fill="#000" fill-opacity="1" stroke="#000" stroke-width="0" paint-order="fill" stroke-opacity="1" stroke-dasharray="" stroke-linecap="butt" stroke-linejoin="miter" stroke-miterlimit="10" transform="matrix(1.100000023841858,0,0,1.100000023841858,-40,-26.649986267089844)" clip-path="none"/>
<path d="M 439.5581 219.1854 L 440.4889 219.961 L 441.1094 221.0987 L 439.6357 222.4948 L 438.6661 221.6158 L 438.8212 219.7542 L 439.5581 219.1854 Z" fill="#000" fill-opacity="1" stroke="#000" stroke-width="0" paint-order="fill" stroke-opacity="1" stroke-dasharray="" stroke-linecap="butt" stroke-linejoin="miter" stroke-miterlimit="10" transform="matrix(1.100000023841858,0,0,1.100000023841858,-40,-26.649986267089844)" clip-path="none"/>
<path d="M 346.7517 363.5595 L 346.4415 365.6796 L 347.411 369.1442 L 348.303 370.7989 L 350.8626 372.557 L 353.8877 376.3836 L 358.9682 377.4178 L 360.9073 377.1075 L 362.924 378.8656 L 363.0016 382.7956 L 362.032 385.7948 L 361.9544 387.5529 L 360.9849 389.7247 L 361.5278 390.0867 L 359.5887 390.8623 L 358.1925 392.3619 L 357.8435 393.6547 L 355.2451 394.6889 L 353.4223 396.7056 L 351.3668 397.7915 L 350.7075 399.7047 L 348.9623 400.8423 L 347.7601 402.2902 L 347.3334 404.3586 L 345.7046 407.151 L 346.4415 407.151 L 347.1395 405.2894 L 346.519 412.1668 L 345.7434 414.3903 L 343.8042 416.1485 L 341.7488 416.6139 L 340.0811 414.3386 L 338.9177 412.0634 L 339.4606 414.804 L 341.5936 416.9758 L 340.8956 417.6998 L 337.3664 419.5096 L 335.8926 422.5088 L 335.3885 424.8358 L 335.5824 426.9559 L 333.6432 428.9208 L 335.3497 427.9383 L 336.3968 432.282 L 337.25 434.5572 L 337.1724 435.4363 L 336.0865 435.9534 L 334.7679 435.4363 L 332.1695 436.3671 L 334.6128 435.85 L 337.5603 436.4188 L 339.6933 440.9175 L 342.3305 444.7441 L 338.7625 444.0201 L 335.6599 442.8308 L 333.5269 442.8308 L 329.8038 441.4346 L 314.4072 442.262 L 313.9805 440.7107 L 312.9722 439.6765 L 311.2658 438.7974 L 310.5677 437.3496 L 309.7533 437.0393 L 310.4513 435.9534 L 310.9167 432.7474 L 309.6757 431.0409 L 310.4126 430.2136 L 310.4513 427.6798 L 309.792 426.8007 L 309.9472 425.3011 L 308.2407 424.8358 L 307.4263 425.7665 L 306.0689 425.3011 L 303.7032 427.473 L 303.0051 427.2661 L 302.1131 424.8358 L 301.2599 421.2161 L 299.3984 419.7165 L 299.6698 418.1652 L 298.7778 417.131 L 299.4371 414.804 L 298.1573 411.96 L 298.933 408.9608 L 301.5314 408.7023 L 301.1436 407.8749 L 302.2683 404.5655 L 304.4013 403.3761 L 305.526 401.7214 L 305.2933 397.3261 L 307.5427 395.6196 L 306.8446 392.2585 L 304.983 390.3969 L 306.3404 386.2602 L 306.3016 383.9849 L 307.659 383.6229 L 308.7449 381.7614 L 310.0635 380.3652 L 308.7449 378.8139 L 309.094 375.6596 L 311.1494 374.1083 L 310.9943 371.9365 L 310.0635 368.4202 L 308.6674 367.3343 L 309.8696 366.7138 L 310.8392 365.2142 L 339.8097 363.7146 L 346.7517 363.5595 Z" fill="#000" fill-opacity="1" stroke="#000" stroke-width="0" paint-order="fill" stroke-opacity="1" stroke-dasharray="" stroke-linecap="butt" stroke-linejoin="miter" stroke-miterlimit="10" transform="matrix(1.100000023841858,0,0,1.100000023841858,-40,-26.649986267089844)" clip-path="none"/>
<path d="M 346.17 78.1724 L 348.8847 68.813 L 346.7517 66.5377 L 348.5745 64.4176 L 348.6133 62.7112 L 351.522 61.4701 L 352.0649 58.8329 L 356.2922 57.5919 L 357.223 56.6094 L 357.8823 53.3 L 359.5887 53.8171 L 360.1704 54.903 L 361.5278 55.2132 L 363.7384 57.4368 L 365.6775 57.0748 L 370.2539 57.2299 L 369.6333 60.1257 L 368.3923 63.4868 L 369.2843 64.0556 L 369.2843 66.7963 L 370.1375 68.5027 L 371.9603 68.813 L 371.8827 72.019 L 372.8135 72.5878 L 373.7831 75.0699 L 376.3427 74.6562 L 378.9024 76.7763 L 379.9495 75.3284 L 381.811 75.4318 L 382.0437 84.0674 L 380.1822 86.9631 L 378.0104 87.7905 L 376.5754 89.4452 L 374.4036 87.4802 L 373.3952 89.1867 L 371.8827 88.8247 L 370.2539 87.3768 L 369.0904 87.9973 L 365.4836 86.7046 L 363.5057 83.5503 L 363.5057 82.5161 L 360.7134 80.7579 L 360.4419 78.6895 L 360.8685 75.6904 L 358.7355 74.1391 L 356.6025 73.4668 L 356.0207 75.8455 L 356.7964 78.0173 L 356.6412 82.1024 L 354.896 84.5845 L 352.9181 84.1191 L 350.7851 82.361 L 348.0315 79.3618 L 346.17 78.1724 Z" fill="#000" fill-opacity="1" stroke="#000" stroke-width="0" paint-order="fill" stroke-opacity="1" stroke-dasharray="" stroke-linecap="butt" stroke-linejoin="miter" stroke-miterlimit="10" transform="matrix(1.100000023841858,0,0,1.100000023841858,-40,-26.649986267089844)" clip-path="none"/>
<path d="M 372.8911 475.5632 L 376.7693 475.8217 L 375.6058 476.9076 L 375.5283 476.132 L 373.4728 477.0628 L 373.1238 476.3388 L 370.409 477.8901 L 369.8273 476.9594 L 372.8911 475.5632 Z M 341.8263 477.5282 L 341.3997 477.5282 L 340.469 449.036 L 343.2225 452.8625 L 343.2613 453.7933 L 341.4773 455.2412 L 341.3222 456.7408 L 342.0978 457.4647 L 344.6962 457.9818 L 345.7434 461.2912 L 347.2171 462.8425 L 349.0399 464.2387 L 348.9623 465.1178 L 351.0178 466.9793 L 355.0124 469.4097 L 357.1454 472.1503 L 361.8769 474.529 L 362.924 474.7358 L 365.7939 474.2704 L 366.9186 474.4256 L 365.6 477.9418 L 364.9019 477.5282 L 363.0016 478.6658 L 362.7689 477.8901 L 360.8297 477.8901 L 360.7522 478.6658 L 358.4252 478.976 L 356.7964 479.7 L 354.8572 478.3555 L 353.1896 477.8901 L 345.5107 477.2696 L 343.843 476.6491 L 343.6879 477.3213 L 341.8263 477.5282 Z" fill="#f5fc98" fill-opacity="1" stroke="#000000" stroke-width="0.3636363557547579" paint-order="fill" stroke-opacity="1" stroke-dasharray="" stroke-linecap="butt" stroke-linejoin="miter" stroke-miterlimit="10" transform="matrix(1.100000023841858,0,0,1.100000023841858,-40,-26.649986267089844)" clip-path="none"/>
<path d="M 399.0304 293.4926 L 398.2936 294.5268 L 397.0525 293.8028 L 397.7506 292.0447 L 399.0304 293.4926 Z M 399.3407 291.5276 L 398.2548 289.5626 L 398.4099 288.9421 L 399.4183 289.5626 L 399.3407 291.5276 Z M 400.9308 276.48 L 401.3962 277.6176 L 400.0776 276.9971 L 399.1856 275.6009 L 400.9308 276.48 Z M 440.3337 212.6182 L 440.8767 214.9969 L 438.7437 216.1345 L 439.9071 217.2204 L 439.5581 219.1854 L 438.8212 219.7542 L 438.6661 221.6158 L 439.6357 222.4948 L 441.1094 221.0987 L 442.6607 222.4431 L 445.5694 223.6842 L 449.021 226.3731 L 451.6194 229.6308 L 452.6278 231.906 L 452.4339 232.7334 L 449.9906 235.6809 L 449.564 238.9903 L 450.5723 241.4724 L 453.6361 244.2647 L 455.3038 244.213 L 455.9631 244.9369 L 455.7304 250.7802 L 455.4201 251.7626 L 453.0544 254.555 L 451.0377 257.6059 L 448.2066 260.3982 L 445.9184 263.0871 L 445.4142 265.8277 L 444.7549 266.6551 L 438.8212 269.706 L 429.5522 272.3432 L 421.214 273.5842 L 411.4408 274.7736 L 408.6873 274.9287 L 405.8949 274.515 L 404.9642 274.877 L 400 273.6877 L 398.759 272.0329 L 396.4708 271.9812 L 397.0525 273.8428 L 396.6259 275.6526 L 397.5567 277.6693 L 399.7673 279.1689 L 399.4183 279.7377 L 398.0997 278.3415 L 397.2464 278.3933 L 399.3795 280.2031 L 398.6426 284.9604 L 396.7811 284.8053 L 395.9666 289.8729 L 394.7256 291.0622 L 395.3849 293.0789 L 396.2381 293.6477 L 397.0525 295.6644 L 395.8891 298.405 L 392.0496 300.37 L 391.3515 300.37 L 390.8473 299.0255 L 388.4816 296.44 L 385.8832 295.9229 L 386.3874 278.1864 L 387.5508 235.3706 L 387.9387 222.7534 L 388.2489 215.2037 L 388.598 214.7901 L 393.7172 214.9452 L 405.701 215.3589 L 413.9617 206.7233 L 414.621 205.2754 L 417.0643 205.5857 L 418.4604 206.5165 L 419.2749 206.1545 L 419.9342 204.3447 L 421.4855 202.328 L 421.3691 201.7074 L 423.1143 203.569 L 425.7903 205.3789 L 426.6435 206.5682 L 428.3887 207.5507 L 429.2807 207.3438 L 430.5606 208.4814 L 431.9567 208.378 L 432.9263 209.8259 L 434.2837 209.8776 L 437.8517 212.7734 L 440.3337 212.6182 Z" fill="#ff0066" fill-opacity="1" stroke="#000000" stroke-width="0.3636363557547579" paint-order="fill" stroke-opacity="1" stroke-dasharray="" stroke-linecap="butt" stroke-linejoin="miter" stroke-miterlimit="10" transform="matrix(1.100000023841858,0,0,1.100000023841858,-40,-26.649986267089844)" clip-path="none"/>
<path d="M 315.0277 188.8317 L 314.2908 188.4697 L 313.6315 185.2637 L 314.9889 184.3329 L 314.1745 183.3504 L 312.9334 183.247 L 310.9943 179.2136 L 311.1106 176.0593 L 312.0026 173.3704 L 313.0886 173.629 L 314.252 172.3362 L 313.4376 171.2503 L 313.5927 169.4922 L 314.9889 163.8558 L 316.579 164.2178 L 317.9364 163.0801 L 318.4405 160.7015 L 317.0444 160.2361 L 317.5485 158.2711 L 317.3934 155.4271 L 315.9585 150.98 L 316.0748 149.8424 L 317.3158 148.0843 L 318.5181 147.4637 L 318.4017 145.7056 L 319.1386 143.7923 L 319.0223 141.5688 L 319.7203 140.5346 L 319.9143 138.4662 L 323.4822 139.4487 L 325.4602 141.1551 L 326.197 143.1718 L 328.2525 145.809 L 327.4381 147.4637 L 328.1361 149.8424 L 327.3993 152.4279 L 327.8647 154.0826 L 330.8897 153.5655 L 335.0394 154.6514 L 337.5991 156.8749 L 339.5382 158.9951 L 342.7959 161.6323 L 343.5716 163.287 L 347.7988 167.6823 L 348.9623 169.9576 L 348.5357 171.302 L 349.195 172.2328 L 348.7296 175.7491 L 349.3501 177.8692 L 351.3668 179.2136 L 351.7159 180.8166 L 352.8406 182.3679 L 350.087 182.5748 L 346.2088 182.0577 L 345.7434 182.7299 L 345.7434 187.3838 L 344.9677 186.815 L 341.0507 187.177 L 338.9564 185.0051 L 334.9618 186.1428 L 331.8593 188.5731 L 329.5711 188.5214 L 329.2608 185.3154 L 328.1749 185.4188 L 326.8175 183.9192 L 325.3438 185.1086 L 323.5986 185.212 L 321.8534 186.1945 L 321.6983 187.5906 L 317.9751 188.6765 L 315.0277 188.8317 Z" fill="#8cd5f7" fill-opacity="1" stroke="#000000" stroke-width="0.3636363557547579" paint-order="fill" stroke-opacity="1" stroke-dasharray="" stroke-linecap="butt" stroke-linejoin="miter" stroke-miterlimit="10" transform="matrix(1.100000023841858,0,0,1.100000023841858,-40,-26.649986267089844)" clip-path="none"/>
<path d="M 315.2604 237.8527 L 315.7258 236.8185 L 315.2216 234.5432 L 315.8421 233.8193 L 315.0665 231.8543 L 315.144 229.8894 L 313.5539 226.1145 L 315.144 225.5457 L 315.3767 222.7534 L 316.1136 220.7367 L 316.5014 217.9961 L 318.1691 215.4623 L 318.3242 213.911 L 320.4572 213.3939 L 320.1082 210.1362 L 319.5264 209.7742 L 319.5264 205.9994 L 320.5348 202.328 L 319.2162 200.5698 L 318.1303 201.3972 L 317.1219 200.001 L 316.928 198.0878 L 318.0527 195.9676 L 316.5014 194.6232 L 315.9972 190.7967 L 315.0277 188.8317 L 317.9751 188.6765 L 321.6983 187.5906 L 321.8534 186.1945 L 323.5986 185.212 L 325.3438 185.1086 L 326.8175 183.9192 L 328.1749 185.4188 L 329.2608 185.3154 L 329.5711 188.5214 L 331.8593 188.5731 L 334.9618 186.1428 L 338.9564 185.0051 L 341.0507 187.177 L 344.9677 186.815 L 345.7434 187.3838 L 347.2559 192.3997 L 347.9927 193.7441 L 347.6437 195.7091 L 348.6133 202.5865 L 349.9319 204.7066 L 350.9014 207.499 L 352.8793 210.3947 L 352.1037 212.5148 L 352.22 214.5315 L 352.9957 217.479 L 354.7409 220.4781 L 355.439 224.2013 L 355.2838 228.9586 L 354.2367 234.5432 L 354.3919 235.2155 L 337.6378 235.4223 L 337.2112 237.077 L 337.5991 238.9903 L 338.0644 255.3823 L 336.2805 255.1755 L 335.2333 253.9862 L 332.9064 253.1588 L 330.2304 252.9003 L 329.4547 251.1421 L 327.7095 250.5216 L 325.4989 250.9353 L 324.0252 250.625 L 322.0861 248.9186 L 322.2024 247.0053 L 320.8063 246.0228 L 319.255 243.9027 L 318.1303 243.3856 L 317.0056 240.8001 L 316.2299 240.9553 L 316.0748 238.8869 L 315.2604 237.8527 Z" fill="#8cd5f7" fill-opacity="1" stroke="#000000" stroke-width="0.3636363557547579" paint-order="fill" stroke-opacity="1" stroke-dasharray="" stroke-linecap="butt" stroke-linejoin="miter" stroke-miterlimit="10" transform="matrix(1.100000023841858,0,0,1.100000023841858,-40,-26.649986267089844)" clip-path="none"/>
<path d="M 304.4401 301.3525 L 304.5564 300.37 L 303.3542 297.6293 L 304.091 296.6469 L 304.5564 293.8028 L 305.7199 292.6135 L 304.2074 291.0105 L 304.3237 289.3558 L 305.4872 289.5109 L 305.9138 286.822 L 304.8667 284.7536 L 305.0994 282.6852 L 306.6894 283.1506 L 306.418 282.1681 L 307.1161 280.8236 L 307.5427 278.2381 L 307.1936 274.4116 L 308.9388 272.7052 L 312.3905 270.947 L 312.5068 268.8786 L 311.1882 267.6376 L 310.684 265.5692 L 310.6065 263.0354 L 308.5898 258.4849 L 309.0164 255.0721 L 308.0856 253.2105 L 309.1327 250.7285 L 307.8917 247.3673 L 308.2795 245.4023 L 309.0164 245.5057 L 309.2103 242.7134 L 310.7228 241.5758 L 312.468 241.6792 L 312.5456 239.6625 L 313.8254 238.0595 L 315.2604 237.8527 L 316.0748 238.8869 L 316.2299 240.9553 L 317.0056 240.8001 L 318.1303 243.3856 L 319.255 243.9027 L 320.8063 246.0228 L 322.2024 247.0053 L 322.0861 248.9186 L 324.0252 250.625 L 325.4989 250.9353 L 327.7095 250.5216 L 329.4547 251.1421 L 330.2304 252.9003 L 332.9064 253.1588 L 335.2333 253.9862 L 336.2805 255.1755 L 338.0644 255.3823 L 338.3747 269.5509 L 340.469 272.6017 L 340.6629 273.4808 L 338.4135 273.8428 L 337.793 273.4291 L 335.3497 275.3424 L 333.1003 277.9796 L 331.6653 280.4099 L 328.7567 281.8578 L 327.8259 283.4608 L 326.1582 284.9087 L 324.8008 284.9604 L 322.0861 286.9771 L 321.1941 292.7686 L 320.0306 294.3199 L 317.82 294.7853 L 316.5014 294.3199 L 315.1828 295.3541 L 312.7783 296.0263 L 311.3433 297.8879 L 312.4293 299.7495 L 311.3821 301.4042 L 309.4042 302.0247 L 307.4651 301.4042 L 304.4401 301.3525 Z" fill="#ff0066" fill-opacity="1" stroke="#000000" stroke-width="0.3636363557547579" paint-order="fill" stroke-opacity="1" stroke-dasharray="" stroke-linecap="butt" stroke-linejoin="miter" stroke-miterlimit="10" transform="matrix(1.100000023841858,0,0,1.100000023841858,-40,-26.649986267089844)" clip-path="none"/>
<path d="M 338.0644 255.3823 L 337.5991 238.9903 L 337.2112 237.077 L 337.6378 235.4223 L 354.3919 235.2155 L 370.0987 235.2155 L 370.2151 222.4431 L 381.9662 222.5983 L 387.9387 222.7534 L 387.5508 235.3706 L 386.3874 278.1864 L 385.4954 278.083 L 383.246 276.48 L 380.5312 273.9979 L 375.8385 271.8778 L 372.3869 271.2573 L 369.4782 271.1539 L 366.9961 271.5675 L 364.7855 270.7919 L 363.7772 271.309 L 361.1012 270.3265 L 358.5804 270.0163 L 356.8351 270.2231 L 355.1675 269.8094 L 354.2755 267.9479 L 350.087 266.138 L 348.9623 263.7076 L 345.2004 264.2765 L 343.6879 262.2598 L 342.2529 261.7427 L 342.2142 259.7777 L 343.5328 258.123 L 343.1449 256.7268 L 342.0978 255.8477 L 338.0644 255.3823 Z" fill="#ff0066" fill-opacity="1" stroke="#000000" stroke-width="0.3636363557547579" paint-order="fill" stroke-opacity="1" stroke-dasharray="" stroke-linecap="butt" stroke-linejoin="miter" stroke-miterlimit="10" transform="matrix(1.100000023841858,0,0,1.100000023841858,-40,-26.649986267089844)" clip-path="none"/>
<path d="M 391.3515 300.37 L 388.4816 301.7144 L 381.9662 301.5593 L 379.2902 299.4909 L 378.2431 299.5426 L 375.9161 298.2499 L 372.8911 297.164 L 372.542 295.9746 L 371.4173 295.561 L 369.168 297.164 L 368.625 299.4392 L 369.6721 305.0756 L 370.2927 306.42 L 369.866 307.8679 L 370.1763 309.5226 L 369.6333 312.315 L 368.974 312.1598 L 306.2241 313.9697 L 305.875 312.2633 L 304.4401 309.2124 L 305.0606 308.4367 L 304.4013 305.9546 L 304.4401 301.3525 L 307.4651 301.4042 L 309.4042 302.0247 L 311.3821 301.4042 L 312.4293 299.7495 L 311.3433 297.8879 L 312.7783 296.0263 L 315.1828 295.3541 L 316.5014 294.3199 L 317.82 294.7853 L 320.0306 294.3199 L 321.1941 292.7686 L 322.0861 286.9771 L 324.8008 284.9604 L 326.1582 284.9087 L 327.8259 283.4608 L 328.7567 281.8578 L 331.6653 280.4099 L 333.1003 277.9796 L 335.3497 275.3424 L 337.793 273.4291 L 338.4135 273.8428 L 340.6629 273.4808 L 340.469 272.6017 L 338.3747 269.5509 L 338.0644 255.3823 L 342.0978 255.8477 L 343.1449 256.7268 L 343.5328 258.123 L 342.2142 259.7777 L 342.2529 261.7427 L 343.6879 262.2598 L 345.2004 264.2765 L 348.9623 263.7076 L 350.087 266.138 L 354.2755 267.9479 L 355.1675 269.8094 L 356.8351 270.2231 L 358.5804 270.0163 L 361.1012 270.3265 L 363.7772 271.309 L 364.7855 270.7919 L 366.9961 271.5675 L 369.4782 271.1539 L 372.3869 271.2573 L 375.8385 271.8778 L 380.5312 273.9979 L 383.246 276.48 L 385.4954 278.083 L 386.3874 278.1864 L 385.8832 295.9229 L 388.4816 296.44 L 390.8473 299.0255 L 391.3515 300.37 Z" fill="#7bea05" fill-opacity="1" stroke="#000000" stroke-width="0.3636363557547579" paint-order="fill" stroke-opacity="1" stroke-dasharray="" stroke-linecap="butt" stroke-linejoin="miter" stroke-miterlimit="10" transform="matrix(1.100000023841858,0,0,1.100000023841858,-40,-26.649986267089844)" clip-path="none"/>
<path d="M 354.3919 235.2155 L 354.2367 234.5432 L 355.2838 228.9586 L 355.439 224.2013 L 354.7409 220.4781 L 352.9957 217.479 L 352.22 214.5315 L 352.1037 212.5148 L 352.8793 210.3947 L 350.9014 207.499 L 349.9319 204.7066 L 348.6133 202.5865 L 347.6437 195.7091 L 347.9927 193.7441 L 347.2559 192.3997 L 345.7434 187.3838 L 345.7434 182.7299 L 346.2088 182.0577 L 350.087 182.5748 L 352.8406 182.3679 L 354.2367 182.8333 L 358.3864 182.9367 L 360.1317 182.3162 L 363.3118 182.4714 L 365.1346 182.8333 L 368.7414 185.4188 L 369.3231 188.056 L 372.2706 187.8492 L 372.7747 191.0035 L 371.0295 198.1912 L 369.9436 199.3805 L 370.3314 209.102 L 370.2151 222.4431 L 370.0987 235.2155 L 354.3919 235.2155 Z" fill="#f6b9fd" fill-opacity="1" stroke="#000000" stroke-width="0.3636363557547579" paint-order="fill" stroke-opacity="1" stroke-dasharray="" stroke-linecap="butt" stroke-linejoin="miter" stroke-miterlimit="10" transform="matrix(1.100000023841858,0,0,1.100000023841858,-40,-26.649986267089844)" clip-path="none"/>
<path d="M 387.9387 222.7534 L 381.9662 222.5983 L 370.2151 222.4431 L 370.3314 209.102 L 369.9436 199.3805 L 371.0295 198.1912 L 372.7747 191.0035 L 372.2706 187.8492 L 369.3231 188.056 L 368.7414 185.4188 L 365.1346 182.8333 L 363.3118 182.4714 L 363.2342 172.3362 L 365.949 163.4938 L 367.3064 160.1327 L 370.1763 159.1502 L 372.3481 156.8232 L 372.193 153.3587 L 373.0462 152.6864 L 379.6004 151.0834 L 382.1989 151.704 L 382.2764 152.4279 L 384.9136 154.0826 L 388.7143 154.2377 L 389.8002 155.789 L 401.6289 156.0993 L 402.133 156.513 L 403.6843 161.0634 L 403.1414 164.9417 L 405.9725 168.5614 L 402.676 179.679 L 401.5513 180.8683 L 401.8228 184.1261 L 401.3962 186.4013 L 402.9087 187.9526 L 403.4904 189.659 L 404.4988 190.6932 L 405.3132 193.5373 L 406.2828 195.4505 L 405.8561 197.6741 L 404.1497 199.0185 L 393.7172 214.9452 L 388.598 214.7901 L 388.2489 215.2037 L 387.9387 222.7534 Z" fill="#ff0066" fill-opacity="1" stroke="#000000" stroke-width="0.3636363557547579" paint-order="fill" stroke-opacity="1" stroke-dasharray="" stroke-linecap="butt" stroke-linejoin="miter" stroke-miterlimit="10" transform="matrix(1.100000023841858,0,0,1.100000023841858,-40,-26.649986267089844)" clip-path="none"/>
<path d="M 373.0462 152.6864 L 372.193 153.3587 L 372.3481 156.8232 L 370.1763 159.1502 L 367.3064 160.1327 L 365.4836 156.3061 L 363.6996 151.9625 L 363.0016 148.7565 L 359.356 145.1368 L 356.9903 143.9475 L 356.9515 142.1376 L 355.439 140.5863 L 354.1979 137.9491 L 349.8155 136.191 L 348.4581 137.1218 L 346.6354 137.3803 L 341.6712 137.2252 L 340.3526 137.7423 L 339.3443 136.1393 L 339.0728 134.4846 L 337.3664 134.8982 L 333.2942 132.7264 L 333.3718 129.7272 L 328.7179 130.4512 L 325.4989 130.2443 L 326.7788 126.1075 L 327.6707 125.3836 L 329.0669 121.7122 L 331.5102 122.3327 L 332.2471 121.1951 L 334.3801 120.7297 L 334.4577 118.5062 L 331.5102 114.4728 L 331.3939 111.3185 L 333.1391 109.6638 L 332.1307 104.286 L 331.4326 103.0966 L 330.8509 100.2526 L 332.0144 96.6846 L 339.9648 98.1325 L 353.8101 97.8222 L 354.3919 97.9256 L 355.3614 100.4594 L 354.8572 102.4244 L 352.2976 102.9932 L 351.4832 103.6654 L 351.7934 105.8373 L 353.655 108.371 L 354.6633 110.4394 L 355.9431 111.939 L 356.6412 111.8356 L 358.1537 109.3018 L 360.0929 110.3877 L 358.9682 113.4903 L 362.381 116.3861 L 362.1483 118.8682 L 358.5416 123.9874 L 360.9073 124.9699 L 361.5278 128.2794 L 362.7301 130.2443 L 364.0875 130.4512 L 364.4753 132.0542 L 365.6775 133.4504 L 366.2981 132.3127 L 368.1984 131.02 L 370.06 131.5888 L 371.0295 136.2944 L 370.9907 138.9316 L 369.866 141.0517 L 370.7193 141.6722 L 371.4173 149.3253 L 373.0462 152.6864 Z" fill="#ff0066" fill-opacity="1" stroke="#000000" stroke-width="0.3636363557547579" paint-order="fill" stroke-opacity="1" stroke-dasharray="" stroke-linecap="butt" stroke-linejoin="miter" stroke-miterlimit="10" transform="matrix(1.100000023841858,0,0,1.100000023841858,-40,-26.649986267089844)" clip-path="none"/>
<path d="M 363.3118 182.4714 L 360.1317 182.3162 L 358.3864 182.9367 L 354.2367 182.8333 L 352.8406 182.3679 L 351.7159 180.8166 L 351.3668 179.2136 L 349.3501 177.8692 L 348.7296 175.7491 L 349.195 172.2328 L 348.5357 171.302 L 348.9623 169.9576 L 347.7988 167.6823 L 343.5716 163.287 L 342.7959 161.6323 L 339.5382 158.9951 L 337.5991 156.8749 L 335.0394 154.6514 L 330.8897 153.5655 L 327.8647 154.0826 L 327.3993 152.4279 L 328.1361 149.8424 L 327.4381 147.4637 L 328.2525 145.809 L 326.197 143.1718 L 325.4602 141.1551 L 323.4822 139.4487 L 319.9143 138.4662 L 322.4351 135.9841 L 323.6762 133.1918 L 325.1111 132.2093 L 325.4989 130.2443 L 328.7179 130.4512 L 333.3718 129.7272 L 333.2942 132.7264 L 337.3664 134.8982 L 339.0728 134.4846 L 339.3443 136.1393 L 340.3526 137.7423 L 341.6712 137.2252 L 346.6354 137.3803 L 348.4581 137.1218 L 349.8155 136.191 L 354.1979 137.9491 L 355.439 140.5863 L 356.9515 142.1376 L 356.9903 143.9475 L 359.356 145.1368 L 363.0016 148.7565 L 363.6996 151.9625 L 365.4836 156.3061 L 367.3064 160.1327 L 365.949 163.4938 L 363.2342 172.3362 L 363.3118 182.4714 Z" fill="#8cd5f7" fill-opacity="1" stroke="#000000" stroke-width="0.3636363557547579" paint-order="fill" stroke-opacity="1" stroke-dasharray="" stroke-linecap="butt" stroke-linejoin="miter" stroke-miterlimit="10" transform="matrix(1.100000023841858,0,0,1.100000023841858,-40,-26.649986267089844)" clip-path="none"/>
<path d="M 360.0929 110.3877 L 358.1537 109.3018 L 356.6412 111.8356 L 355.9431 111.939 L 354.6633 110.4394 L 353.655 108.371 L 351.7934 105.8373 L 351.4832 103.6654 L 352.2976 102.9932 L 354.8572 102.4244 L 355.3614 100.4594 L 354.3919 97.9256 L 353.8101 97.8222 L 339.9648 98.1325 L 332.0144 96.6846 L 333.3718 96.3226 L 332.1695 93.3235 L 331.0448 91.6687 L 331.8205 89.6003 L 334.7679 86.6529 L 344.9289 81.999 L 346.17 78.1724 L 348.0315 79.3618 L 350.7851 82.361 L 352.9181 84.1191 L 354.896 84.5845 L 356.6412 82.1024 L 356.7964 78.0173 L 356.0207 75.8455 L 356.6025 73.4668 L 358.7355 74.1391 L 360.8685 75.6904 L 360.4419 78.6895 L 360.7134 80.7579 L 363.5057 82.5161 L 363.5057 83.5503 L 365.4836 86.7046 L 369.0904 87.9973 L 370.2539 87.3768 L 371.8827 88.8247 L 373.3952 89.1867 L 374.4036 87.4802 L 376.5754 89.4452 L 378.0104 87.7905 L 380.1822 86.9631 L 382.0437 84.0674 L 381.811 75.4318 L 379.9495 75.3284 L 378.9024 76.7763 L 376.3427 74.6562 L 373.7831 75.0699 L 372.8135 72.5878 L 371.8827 72.019 L 371.9603 68.813 L 370.1375 68.5027 L 369.2843 66.7963 L 369.2843 64.0556 L 368.3923 63.4868 L 369.6333 60.1257 L 370.2539 57.2299 L 372.2318 57.2299 L 377.3123 58.7812 L 377.4674 60.4359 L 379.135 62.9697 L 378.8248 64.2625 L 379.8331 65.4001 L 380.1046 67.1065 L 381.2293 63.0214 L 382.3152 61.7287 L 384.8748 56.1957 L 387.3181 56.8163 L 388.5204 56.144 L 398.3324 56.4026 L 398.4875 57.8504 L 400.4654 59.6603 L 400.2715 60.1774 L 403.6455 62.5561 L 403.3353 76.4143 L 403.1414 83.6537 L 403.1026 87.2734 L 390.4983 103.0449 L 384.487 102.8898 L 381.1905 102.2176 L 378.6697 107.5954 L 377.9716 110.0775 L 374.7526 109.9223 L 372.5033 110.5946 L 369.0516 109.2501 L 368.5474 108.1125 L 367.0737 108.6813 L 364.5529 108.1125 L 364.0099 110.9048 L 360.0929 110.3877 Z" fill="#8cd5f7" fill-opacity="1" stroke="#000000" stroke-width="0.3636363557547579" paint-order="fill" stroke-opacity="1" stroke-dasharray="" stroke-linecap="butt" stroke-linejoin="miter" stroke-miterlimit="10" transform="matrix(1.100000023841858,0,0,1.100000023841858,-40,-26.649986267089844)" clip-path="none"/>
<path d="M 373.0462 152.6864 L 371.4173 149.3253 L 370.7193 141.6722 L 369.866 141.0517 L 370.9907 138.9316 L 371.0295 136.2944 L 370.06 131.5888 L 371.1846 131.3302 L 371.9603 129.9341 L 371.1846 127.9174 L 372.3093 126.5729 L 371.2622 126.0041 L 373.3565 123.9357 L 375.1017 119.8506 L 375.6834 117.6788 L 376.7305 116.0241 L 377.6613 115.9724 L 377.5062 112.9215 L 377.9716 110.0775 L 378.6697 107.5954 L 381.1905 102.2176 L 384.487 102.8898 L 390.4983 103.0449 L 409.3466 103.562 L 409.6568 104.6996 L 409.5793 111.2668 L 408.8424 133.6055 L 406.7094 145.2919 L 403.6843 161.0634 L 402.133 156.513 L 401.6289 156.0993 L 389.8002 155.789 L 388.7143 154.2377 L 384.9136 154.0826 L 382.2764 152.4279 L 382.1989 151.704 L 379.6004 151.0834 L 373.0462 152.6864 Z" fill="#f5fc98" fill-opacity="1" stroke="#000000" stroke-width="0.3636363557547579" paint-order="fill" stroke-opacity="1" stroke-dasharray="" stroke-linecap="butt" stroke-linejoin="miter" stroke-miterlimit="10" transform="matrix(1.100000023841858,0,0,1.100000023841858,-40,-26.649986267089844)" clip-path="none"/>
<path d="M 370.06 131.5888 L 368.1984 131.02 L 366.2981 132.3127 L 365.6775 133.4504 L 364.4753 132.0542 L 364.0875 130.4512 L 362.7301 130.2443 L 361.5278 128.2794 L 360.9073 124.9699 L 358.5416 123.9874 L 362.1483 118.8682 L 362.381 116.3861 L 358.9682 113.4903 L 360.0929 110.3877 L 364.0099 110.9048 L 364.5529 108.1125 L 367.0737 108.6813 L 368.5474 108.1125 L 369.0516 109.2501 L 372.5033 110.5946 L 374.7526 109.9223 L 377.9716 110.0775 L 377.5062 112.9215 L 377.6613 115.9724 L 376.7305 116.0241 L 375.6834 117.6788 L 375.1017 119.8506 L 373.3565 123.9357 L 371.2622 126.0041 L 372.3093 126.5729 L 371.1846 127.9174 L 371.9603 129.9341 L 371.1846 131.3302 L 370.06 131.5888 Z" fill="#7bea05" fill-opacity="1" stroke="#000000" stroke-width="0.3636363557547579" paint-order="fill" stroke-opacity="1" stroke-dasharray="" stroke-linecap="butt" stroke-linejoin="miter" stroke-miterlimit="10" transform="matrix(1.100000023841858,0,0,1.100000023841858,-40,-26.649986267089844)" clip-path="none"/>
<path d="M 390.4983 103.0449 L 403.1026 87.2734 L 403.1414 83.6537 L 406.4767 84.8947 L 408.1443 86.3426 L 409.618 86.6529 L 410.8979 88.4627 L 411.945 88.6179 L 413.2636 90.3243 L 415.4354 90.7897 L 416.754 91.8239 L 417.2582 93.7888 L 422.3775 97.7188 L 423.9675 98.2876 L 425.4801 100.356 L 427.4192 104.3377 L 429.048 104.8548 L 430.9484 106.5095 L 433.0039 109.095 L 432.9651 110.4394 L 435.8738 111.5253 L 436.1065 112.8181 L 437.2311 113.5937 L 438.8212 113.0249 L 440.9543 114.5245 L 441.9238 115.869 L 445.0652 118.4545 L 447.4697 121.1434 L 446.2287 121.6088 L 445.5306 123.2635 L 443.8242 124.4011 L 444.2895 126.4695 L 440.9543 128.3828 L 441.536 132.2093 L 440.8379 135.1051 L 419.6627 134.0192 L 408.8424 133.6055 L 409.5793 111.2668 L 409.6568 104.6996 L 409.3466 103.562 L 390.4983 103.0449 Z" fill="#ff0066" fill-opacity="1" stroke="#000000" stroke-width="0.3636363557547579" paint-order="fill" stroke-opacity="1" stroke-dasharray="" stroke-linecap="butt" stroke-linejoin="miter" stroke-miterlimit="10" transform="matrix(1.100000023841858,0,0,1.100000023841858,-40,-26.649986267089844)" clip-path="none"/>
<path d="M 403.1414 83.6537 L 403.3353 76.4143 L 403.6455 62.5561 L 404.8866 63.642 L 405.5847 65.7104 L 407.9892 69.8472 L 409.269 70.6745 L 410.3937 72.4844 L 411.9838 73.26 L 413.2636 74.863 L 415.513 75.8455 L 417.646 77.5002 L 418.7707 80.0857 L 420.7098 81.0165 L 423.5022 81.5853 L 423.6961 82.0507 L 426.566 83.0849 L 429.9788 83.1366 L 436.4555 87.9456 L 437.7741 89.6521 L 441.6136 91.8756 L 443.7466 93.7371 L 447.5861 94.8748 L 449.3313 96.8397 L 450.4172 96.1675 L 453.0932 98.0808 L 454.1791 98.1842 L 455.6528 99.6321 L 457.7083 103.3552 L 456.8163 105.3202 L 455.265 105.9407 L 454.6057 107.9574 L 453.2871 109.6121 L 453.6361 110.2326 L 451.0765 111.5771 L 450.0293 113.3352 L 448.7495 119.5921 L 447.4697 121.1434 L 445.0652 118.4545 L 441.9238 115.869 L 440.9543 114.5245 L 438.8212 113.0249 L 437.2311 113.5937 L 436.1065 112.8181 L 435.8738 111.5253 L 432.9651 110.4394 L 433.0039 109.095 L 430.9484 106.5095 L 429.048 104.8548 L 427.4192 104.3377 L 425.4801 100.356 L 423.9675 98.2876 L 422.3775 97.7188 L 417.2582 93.7888 L 416.754 91.8239 L 415.4354 90.7897 L 413.2636 90.3243 L 411.945 88.6179 L 410.8979 88.4627 L 409.618 86.6529 L 408.1443 86.3426 L 406.4767 84.8947 L 403.1414 83.6537 Z" fill="#ff0066" fill-opacity="1" stroke="#000000" stroke-width="0.3636363557547579" paint-order="fill" stroke-opacity="1" stroke-dasharray="" stroke-linecap="butt" stroke-linejoin="miter" stroke-miterlimit="10" transform="matrix(1.100000023841858,0,0,1.100000023841858,-40,-26.649986267089844)" clip-path="none"/>
<path d="M 440.8379 135.1051 L 441.536 132.2093 L 440.9543 128.3828 L 444.2895 126.4695 L 445.3755 126.0558 L 450.9213 126.1593 L 454.5281 127.3486 L 456.3121 128.4345 L 458.6003 128.6413 L 460.2679 129.7272 L 463.4869 129.1067 L 464.883 130.3478 L 467.5202 129.8824 L 469.4206 131.6922 L 470.584 129.2618 L 472.4456 128.2794 L 474.2296 128.7965 L 473.5315 130.3478 L 474.8889 133.864 L 475.0828 136.3461 L 476.0524 138.5179 L 477.2546 139.6555 L 475.4706 140.638 L 476.5953 141.9825 L 476.0136 142.965 L 474.5399 142.0342 L 473.803 143.4821 L 472.4844 143.844 L 472.2517 144.9817 L 470.2738 146.8432 L 469.1103 147.2052 L 468.8388 148.4979 L 467.3651 150.5663 L 464.9994 151.8591 L 464.1849 153.7206 L 459.1044 159.0468 L 456.8551 159.6673 L 456.3121 161.7874 L 454.1403 163.7007 L 452.589 164.2178 L 452.3563 165.9759 L 450.0681 167.8374 L 449.564 169.1302 L 450.262 171.1986 L 448.4393 169.1819 L 447.7024 166.8033 L 445.7633 164.2178 L 441.7687 162.925 L 438.9764 163.7007 L 437.5802 163.3387 L 434.8654 164.9417 L 433.2753 164.3729 L 430.2503 164.6314 L 431.1811 160.4946 L 430.5218 158.7365 L 431.5301 155.3754 L 431.724 152.7899 L 432.6936 150.2044 L 434.4388 149.4804 L 436.3391 148.0325 L 436.4555 146.7398 L 437.6965 143.4821 L 438.2783 140.1209 L 438.2783 136.9666 L 439.7908 136.4495 L 440.8379 135.1051 Z" fill="#ff0066" fill-opacity="1" stroke="#000000" stroke-width="0.3636363557547579" paint-order="fill" stroke-opacity="1" stroke-dasharray="" stroke-linecap="butt" stroke-linejoin="miter" stroke-miterlimit="10" transform="matrix(1.100000023841858,0,0,1.100000023841858,-40,-26.649986267089844)" clip-path="none"/>
<path d="M 430.2503 164.6314 L 433.2753 164.3729 L 434.8654 164.9417 L 437.5802 163.3387 L 438.9764 163.7007 L 441.7687 162.925 L 445.7633 164.2178 L 447.7024 166.8033 L 448.4393 169.1819 L 450.262 171.1986 L 450.1069 173.3187 L 448.9434 173.7324 L 449.4476 175.1803 L 448.7495 177.5072 L 446.6553 180.3512 L 447.5473 181.4889 L 446.5389 184.6949 L 445.2979 185.0569 L 445.3367 187.8492 L 444.8325 188.9868 L 445.6082 191.1069 L 444.1732 193.2787 L 444.4059 200.5698 L 443.3588 201.0869 L 441.885 200.6732 L 441.3421 203.569 L 440.0623 205.3789 L 439.5581 208.378 L 440.2562 210.4464 L 440.3337 212.6182 L 437.8517 212.7734 L 434.2837 209.8776 L 432.9263 209.8259 L 431.9567 208.378 L 430.5606 208.4814 L 429.2807 207.3438 L 428.3887 207.5507 L 426.6435 206.5682 L 425.7903 205.3789 L 423.1143 203.569 L 421.3691 201.7074 L 419.3137 199.8459 L 417.5684 196.2262 L 416.7928 192.2962 L 417.6072 187.5906 L 418.1502 185.9876 L 417.6072 184.6432 L 418.5768 181.7474 L 421.1364 181.3337 L 424.8208 177.4038 L 429.9788 169.699 L 430.6381 166.0793 L 430.2503 164.6314 Z" fill="#ff0066" fill-opacity="1" stroke="#000000" stroke-width="0.3636363557547579" paint-order="fill" stroke-opacity="1" stroke-dasharray="" stroke-linecap="butt" stroke-linejoin="miter" stroke-miterlimit="10" transform="matrix(1.100000023841858,0,0,1.100000023841858,-40,-26.649986267089844)" clip-path="none"/>
<path d="M 310.8392 365.2142 L 310.6065 363.7146 L 309.2879 361.9565 L 309.443 359.7847 L 311.4985 359.009 L 311.576 357.5094 L 313.2437 356.0616 L 310.4901 352.0799 L 308.9 351.6145 L 307.7366 351.8731 L 306.0689 351.4077 L 306.1465 349.4944 L 307.9305 349.8047 L 311.1106 348.9773 L 312.6232 349.6495 L 313.4376 348.8739 L 313.36 347.7363 L 314.3296 346.0298 L 313.4376 344.7371 L 311.3433 344.582 L 307.8529 344.8405 L 307.8529 342.5136 L 307.2712 341.0657 L 308.0856 340.4452 L 308.9 338.6353 L 307.4263 336.1532 L 308.2795 335.3776 L 308.0468 334.3951 L 306.6119 333.7746 L 305.9526 332.7921 L 306.1465 330.9822 L 307.5427 330.5686 L 307.5039 329.2241 L 304.983 328.5002 L 303.5869 327.0523 L 303.7808 325.2424 L 303.199 321.8296 L 304.091 320.4334 L 303.1215 317.5377 L 303.8195 315.9864 L 304.7115 316.2449 L 306.6119 315.0039 L 306.2241 313.9697 L 368.974 312.1598 L 369.6333 312.315 L 371.4949 314.6419 L 374.9078 315.4176 L 373.8219 317.5894 L 375.2956 317.9513 L 378.2818 317.8479 L 379.0187 317.0723 L 378.8636 315.7795 L 376.7305 315.5727 L 381.3844 313.2975 L 382.3152 314.1248 L 383.3623 316.8137 L 383.3623 320.0197 L 382.9357 322.0364 L 381.811 322.9672 L 378.3206 323.6394 L 377.0408 322.1916 L 377.5838 320.5368 L 375.3344 318.727 L 373.7055 318.8304 L 370.5641 320.5368 L 370.06 322.1916 L 373.3177 324.1048 L 375.2956 324.7771 L 376.3815 324.4151 L 375.1405 325.9147 L 372.1542 326.8972 L 369.6721 328.8104 L 369.6721 329.8446 L 366.841 333.6195 L 366.9574 335.6361 L 367.8881 339.5661 L 367.0349 340.8588 L 367.8494 342.4618 L 366.7634 343.7029 L 366.1817 345.4093 L 364.8631 345.7196 L 363.5445 346.9089 L 363.273 348.9256 L 364.5529 349.2876 L 364.165 351.4077 L 362.9628 350.8906 L 361.0236 351.1491 L 358.9294 350.4769 L 355.439 352.3902 L 356.0207 353.3726 L 352.9569 353.6312 L 351.2117 355.1308 L 348.8847 358.5436 L 348.5357 360.8706 L 347.8376 361.2843 L 346.7517 363.5595 L 339.8097 363.7146 L 310.8392 365.2142 Z" fill="#ff0066" fill-opacity="1" stroke="#000000" stroke-width="0.3636363557547579" paint-order="fill" stroke-opacity="1" stroke-dasharray="" stroke-linecap="butt" stroke-linejoin="miter" stroke-miterlimit="10" transform="matrix(1.100000023841858,0,0,1.100000023841858,-40,-26.649986267089844)" clip-path="none"/>
<path d="M 393.7172 214.9452 L 404.1497 199.0185 L 405.8561 197.6741 L 406.2828 195.4505 L 405.3132 193.5373 L 404.4988 190.6932 L 403.4904 189.659 L 402.9087 187.9526 L 401.3962 186.4013 L 401.8228 184.1261 L 401.5513 180.8683 L 402.676 179.679 L 405.9725 168.5614 L 403.1414 164.9417 L 403.6843 161.0634 L 406.7094 145.2919 L 408.8424 133.6055 L 419.6627 134.0192 L 440.8379 135.1051 L 439.7908 136.4495 L 438.2783 136.9666 L 438.2783 140.1209 L 437.6965 143.4821 L 436.4555 146.7398 L 436.3391 148.0325 L 434.4388 149.4804 L 432.6936 150.2044 L 431.724 152.7899 L 431.5301 155.3754 L 430.5218 158.7365 L 431.1811 160.4946 L 430.2503 164.6314 L 430.6381 166.0793 L 429.9788 169.699 L 424.8208 177.4038 L 421.1364 181.3337 L 418.5768 181.7474 L 417.6072 184.6432 L 418.1502 185.9876 L 417.6072 187.5906 L 416.7928 192.2962 L 417.5684 196.2262 L 419.3137 199.8459 L 421.3691 201.7074 L 421.4855 202.328 L 419.9342 204.3447 L 419.2749 206.1545 L 418.4604 206.5165 L 417.0643 205.5857 L 414.621 205.2754 L 413.9617 206.7233 L 405.701 215.3589 L 393.7172 214.9452 Z" fill="#7bea05" fill-opacity="1" stroke="#000000" stroke-width="0.3636363557547579" paint-order="fill" stroke-opacity="1" stroke-dasharray="" stroke-linecap="butt" stroke-linejoin="miter" stroke-miterlimit="10" transform="matrix(1.100000023841858,0,0,1.100000023841858,-40,-26.649986267089844)" clip-path="none"/>
<path d="M 474.2296 128.7965 L 476.5178 130.4512 L 478.4957 129.1067 L 478.5732 127.0383 L 480.2021 126.3144 L 480.6675 124.9699 L 482.4515 124.3494 L 484.0803 124.7631 L 484.313 123.5738 L 486.1358 122.7464 L 487.1054 121.1951 L 488.3852 121.0917 L 488.5403 119.5921 L 489.5874 118.5579 L 490.6733 115.4553 L 490.6346 112.6113 L 491.6817 110.5429 L 491.1775 108.8881 L 491.798 107.4403 L 493.3493 108.4745 L 494.0862 107.8539 L 497.6154 106.9749 L 497.3439 107.6471 L 499.7484 108.8881 L 500.369 111.2668 L 500.2914 113.4386 L 501.8427 116.7998 L 500.9895 118.7647 L 500.3302 122.8498 L 500.5241 125.2285 L 498.6625 128.8482 L 497.2664 128.5896 L 495.6375 130.1409 L 494.7067 129.5204 L 493.233 131.7956 L 492.5737 131.2785 L 490.3631 132.261 L 486.0582 133.6572 L 485.748 135.1051 L 483.8089 135.467 L 484.3518 136.2944 L 480.9777 136.9666 L 479.3877 138.9833 L 477.2546 139.6555 L 476.0524 138.5179 L 475.0828 136.3461 L 474.8889 133.864 L 473.5315 130.3478 L 474.2296 128.7965 Z" fill="#8cd5f7" fill-opacity="1" stroke="#000000" stroke-width="0.3636363557547579" paint-order="fill" stroke-opacity="1" stroke-dasharray="" stroke-linecap="butt" stroke-linejoin="miter" stroke-miterlimit="10" transform="matrix(1.100000023841858,0,0,1.100000023841858,-40,-26.649986267089844)" clip-path="none"/>
<path d="M 439.5581 219.1854 L 440.4889 219.961 L 441.1094 221.0987 L 439.6357 222.4948 L 438.6661 221.6158 L 438.8212 219.7542 L 439.5581 219.1854 Z" fill="#ff0066" fill-opacity="1" stroke="#000000" stroke-width="0.3636363557547579" paint-order="fill" stroke-opacity="1" stroke-dasharray="" stroke-linecap="butt" stroke-linejoin="miter" stroke-miterlimit="10" transform="matrix(1.100000023841858,0,0,1.100000023841858,-40,-26.649986267089844)" clip-path="none"/>
<path d="M 346.7517 363.5595 L 346.4415 365.6796 L 347.411 369.1442 L 348.303 370.7989 L 350.8626 372.557 L 353.8877 376.3836 L 358.9682 377.4178 L 360.9073 377.1075 L 362.924 378.8656 L 363.0016 382.7956 L 362.032 385.7948 L 361.9544 387.5529 L 360.9849 389.7247 L 361.5278 390.0867 L 359.5887 390.8623 L 358.1925 392.3619 L 357.8435 393.6547 L 355.2451 394.6889 L 353.4223 396.7056 L 351.3668 397.7915 L 350.7075 399.7047 L 348.9623 400.8423 L 347.7601 402.2902 L 347.3334 404.3586 L 345.7046 407.151 L 346.4415 407.151 L 347.1395 405.2894 L 346.519 412.1668 L 345.7434 414.3903 L 343.8042 416.1485 L 341.7488 416.6139 L 340.0811 414.3386 L 338.9177 412.0634 L 339.4606 414.804 L 341.5936 416.9758 L 340.8956 417.6998 L 337.3664 419.5096 L 335.8926 422.5088 L 335.3885 424.8358 L 335.5824 426.9559 L 333.6432 428.9208 L 335.3497 427.9383 L 336.3968 432.282 L 337.25 434.5572 L 337.1724 435.4363 L 336.0865 435.9534 L 334.7679 435.4363 L 332.1695 436.3671 L 334.6128 435.85 L 337.5603 436.4188 L 339.6933 440.9175 L 342.3305 444.7441 L 338.7625 444.0201 L 335.6599 442.8308 L 333.5269 442.8308 L 329.8038 441.4346 L 314.4072 442.262 L 313.9805 440.7107 L 312.9722 439.6765 L 311.2658 438.7974 L 310.5677 437.3496 L 309.7533 437.0393 L 310.4513 435.9534 L 310.9167 432.7474 L 309.6757 431.0409 L 310.4126 430.2136 L 310.4513 427.6798 L 309.792 426.8007 L 309.9472 425.3011 L 308.2407 424.8358 L 307.4263 425.7665 L 306.0689 425.3011 L 303.7032 427.473 L 303.0051 427.2661 L 302.1131 424.8358 L 301.2599 421.2161 L 299.3984 419.7165 L 299.6698 418.1652 L 298.7778 417.131 L 299.4371 414.804 L 298.1573 411.96 L 298.933 408.9608 L 301.5314 408.7023 L 301.1436 407.8749 L 302.2683 404.5655 L 304.4013 403.3761 L 305.526 401.7214 L 305.2933 397.3261 L 307.5427 395.6196 L 306.8446 392.2585 L 304.983 390.3969 L 306.3404 386.2602 L 306.3016 383.9849 L 307.659 383.6229 L 308.7449 381.7614 L 310.0635 380.3652 L 308.7449 378.8139 L 309.094 375.6596 L 311.1494 374.1083 L 310.9943 371.9365 L 310.0635 368.4202 L 308.6674 367.3343 L 309.8696 366.7138 L 310.8392 365.2142 L 339.8097 363.7146 L 346.7517 363.5595 Z" fill="#8cd5f7" fill-opacity="1" stroke="#000000" stroke-width="0.3636363557547579" paint-order="fill" stroke-opacity="1" stroke-dasharray="" stroke-linecap="butt" stroke-linejoin="miter" stroke-miterlimit="10" transform="matrix(1.100000023841858,0,0,1.100000023841858,-40,-26.649986267089844)" clip-path="none"/>
<path d="M 346.17 78.1724 L 348.8847 68.813 L 346.7517 66.5377 L 348.5745 64.4176 L 348.6133 62.7112 L 351.522 61.4701 L 352.0649 58.8329 L 356.2922 57.5919 L 357.223 56.6094 L 357.8823 53.3 L 359.5887 53.8171 L 360.1704 54.903 L 361.5278 55.2132 L 363.7384 57.4368 L 365.6775 57.0748 L 370.2539 57.2299 L 369.6333 60.1257 L 368.3923 63.4868 L 369.2843 64.0556 L 369.2843 66.7963 L 370.1375 68.5027 L 371.9603 68.813 L 371.8827 72.019 L 372.8135 72.5878 L 373.7831 75.0699 L 376.3427 74.6562 L 378.9024 76.7763 L 379.9495 75.3284 L 381.811 75.4318 L 382.0437 84.0674 L 380.1822 86.9631 L 378.0104 87.7905 L 376.5754 89.4452 L 374.4036 87.4802 L 373.3952 89.1867 L 371.8827 88.8247 L 370.2539 87.3768 L 369.0904 87.9973 L 365.4836 86.7046 L 363.5057 83.5503 L 363.5057 82.5161 L 360.7134 80.7579 L 360.4419 78.6895 L 360.8685 75.6904 L 358.7355 74.1391 L 356.6025 73.4668 L 356.0207 75.8455 L 356.7964 78.0173 L 356.6412 82.1024 L 354.896 84.5845 L 352.9181 84.1191 L 350.7851 82.361 L 348.0315 79.3618 L 346.17 78.1724 Z" fill="#ff0066" fill-opacity="1" stroke="#000000" stroke-width="0.3636363557547579" paint-order="fill" stroke-opacity="1" stroke-dasharray="" stroke-linecap="butt" stroke-linejoin="miter" stroke-miterlimit="10" transform="matrix(1.100000023841858,0,0,1.100000023841858,-40,-26.649986267089844)" clip-path="none"/>
<path d="M -5 -5 L 5 -5 L 5 5 L -5 5 L -5 -5 Z" fill="none" fill-opacity="1" stroke="#ccc" stroke-width="0" paint-order="fill" stroke-opacity="1" stroke-dasharray="" stroke-linecap="butt" stroke-linejoin="miter" stroke-miterlimit="10" transform="matrix(1,0,0,1,795,266.5)" clip-path="none"/>
<path fill="rgba(255,255,255,0)" fill-opacity="0" stroke="#ccc" stroke-width="0" paint-order="fill" stroke-opacity="1" stroke-dasharray="" stroke-linecap="butt" stroke-linejoin="miter" stroke-miterlimit="10" transform="matrix(1,0,0,1,15,10)" clip-path="none"/><defs/>
</svg>